<?xml version="1.0" standalone="no"?>
 <!DOCTYPE svg PUBLIC "-//W3C//DTD SVG 1.1//EN" 
 "http://www.w3.org/Graphics/SVG/1.1/DTD/svg11.dtd"> 
<svg xmlns="http://www.w3.org/2000/svg" version="1.1" 
    width="5.76072cm" height="6.25856cm" viewBox="0 0 22680 24640 ">
<title>SVG Picture created as SloCommunicator-F.Cu.svg date 2016/05/13 10:51:32 </title>
  <desc>Picture generated by PCBNEW </desc>
<g style="fill:#000000; fill-opacity:1;stroke:#000000; stroke-opacity:1;
stroke-linecap:round; stroke-linejoin:round; "
 transform="translate(0 0) scale(1 1)">
</g>
<g style="fill:#000000; fill-opacity:0.0; 
stroke:#000000; stroke-width:-0.000393701; stroke-opacity:1; 
stroke-linecap:round; stroke-linejoin:round;">
</g>
<g style="fill:#000000; fill-opacity:0.0; 
stroke:#000000; stroke-width:39.3701; stroke-opacity:1; 
stroke-linecap:round; stroke-linejoin:round;">
<path d="M6782 4622
L16032 4622
" />
<path d="M6782 3872
L6782 4622
" />
<path d="M16032 3872
L6782 3872
" />
<path d="M16032 4622
L16032 3872
" />
<path d="M6782 24122
L13032 24122
" />
<path d="M6782 23372
L6782 24122
" />
<path d="M16532 23372
L6782 23372
" />
<path d="M16532 24122
L16532 23372
" />
<path d="M13032 24122
L16532 24122
" />
<path d="M22032 24622
L22032 23122
" />
<path d="M1032 24622
L22032 24622
" />
<path d="M1032 2122
L1032 24622
" />
<path d="M22032 3122
L1032 3122
" />
<path d="M22032 23122
L22032 2122
" />
</g>
<g style="fill:#000000; fill-opacity:0.0; 
stroke:#000000; stroke-width:0; stroke-opacity:1; 
stroke-linecap:round; stroke-linejoin:round;">
</g>
<g style="fill:#000000; fill-opacity:1.0; 
stroke:#000000; stroke-width:0; stroke-opacity:1; 
stroke-linecap:round; stroke-linejoin:round;">
<polyline style="fill-rule:evenodd;"
points="14778,10512
14286,10512
14286,10118
14778,10118
14778,10512
" /> 
<polyline style="fill-rule:evenodd;"
points="14778,9725
14286,9725
14286,9331
14778,9331
14778,9725
" /> 
<polyline style="fill-rule:evenodd;"
points="4786,12031
5278,12031
5278,12425
4786,12425
4786,12031
" /> 
<polyline style="fill-rule:evenodd;"
points="4786,12818
5278,12818
5278,13212
4786,13212
4786,12818
" /> 
<polyline style="fill-rule:evenodd;"
points="16181,21886
16181,22358
15709,22358
15709,21886
16181,21886
" /> 
<polyline style="fill-rule:evenodd;"
points="15355,21886
15355,22358
14883,22358
14883,21886
15355,21886
" /> 
<polyline style="fill-rule:evenodd;"
points="16181,16886
16181,17358
15709,17358
15709,16886
16181,16886
" /> 
<polyline style="fill-rule:evenodd;"
points="15355,16886
15355,17358
14883,17358
14883,16886
15355,16886
" /> 
<polyline style="fill-rule:evenodd;"
points="8044,10627
8044,10411
8674,10411
8674,10627
8044,10627
" /> 
<polyline style="fill-rule:evenodd;"
points="8044,10942
8044,10726
8674,10726
8674,10942
8044,10942
" /> 
<polyline style="fill-rule:evenodd;"
points="8044,11257
8044,11041
8674,11041
8674,11257
8044,11257
" /> 
<polyline style="fill-rule:evenodd;"
points="8044,11572
8044,11356
8674,11356
8674,11572
8044,11572
" /> 
<polyline style="fill-rule:evenodd;"
points="8044,11887
8044,11671
8674,11671
8674,11887
8044,11887
" /> 
<polyline style="fill-rule:evenodd;"
points="8044,12202
8044,11986
8674,11986
8674,12202
8044,12202
" /> 
<polyline style="fill-rule:evenodd;"
points="8044,12517
8044,12301
8674,12301
8674,12517
8044,12517
" /> 
<polyline style="fill-rule:evenodd;"
points="8044,12832
8044,12616
8674,12616
8674,12832
8044,12832
" /> 
<polyline style="fill-rule:evenodd;"
points="9038,13610
8821,13610
8821,12980
9038,12980
9038,13610
" /> 
<polyline style="fill-rule:evenodd;"
points="9353,13610
9136,13610
9136,12980
9353,12980
9353,13610
" /> 
<polyline style="fill-rule:evenodd;"
points="9668,13610
9451,13610
9451,12980
9668,12980
9668,13610
" /> 
<polyline style="fill-rule:evenodd;"
points="9983,13610
9766,13610
9766,12980
9983,12980
9983,13610
" /> 
<polyline style="fill-rule:evenodd;"
points="10298,13610
10081,13610
10081,12980
10298,12980
10298,13610
" /> 
<polyline style="fill-rule:evenodd;"
points="10613,13610
10396,13610
10396,12980
10613,12980
10613,13610
" /> 
<polyline style="fill-rule:evenodd;"
points="10928,13610
10711,13610
10711,12980
10928,12980
10928,13610
" /> 
<polyline style="fill-rule:evenodd;"
points="11243,13610
11026,13610
11026,12980
11243,12980
11243,13610
" /> 
<polyline style="fill-rule:evenodd;"
points="11390,12832
11390,12616
12020,12616
12020,12832
11390,12832
" /> 
<polyline style="fill-rule:evenodd;"
points="11390,12517
11390,12301
12020,12301
12020,12517
11390,12517
" /> 
<polyline style="fill-rule:evenodd;"
points="11390,12202
11390,11986
12020,11986
12020,12202
11390,12202
" /> 
<polyline style="fill-rule:evenodd;"
points="11390,11887
11390,11671
12020,11671
12020,11887
11390,11887
" /> 
<polyline style="fill-rule:evenodd;"
points="11390,11572
11390,11356
12020,11356
12020,11572
11390,11572
" /> 
<polyline style="fill-rule:evenodd;"
points="11390,11257
11390,11041
12020,11041
12020,11257
11390,11257
" /> 
<polyline style="fill-rule:evenodd;"
points="11390,10942
11390,10726
12020,10726
12020,10942
11390,10942
" /> 
<polyline style="fill-rule:evenodd;"
points="11390,10627
11390,10411
12020,10411
12020,10627
11390,10627
" /> 
<polyline style="fill-rule:evenodd;"
points="11243,10263
11026,10263
11026,9633
11243,9633
11243,10263
" /> 
<polyline style="fill-rule:evenodd;"
points="10928,10263
10711,10263
10711,9633
10928,9633
10928,10263
" /> 
<polyline style="fill-rule:evenodd;"
points="10613,10263
10396,10263
10396,9633
10613,9633
10613,10263
" /> 
<polyline style="fill-rule:evenodd;"
points="10298,10263
10081,10263
10081,9633
10298,9633
10298,10263
" /> 
<polyline style="fill-rule:evenodd;"
points="9983,10263
9766,10263
9766,9633
9983,9633
9983,10263
" /> 
<polyline style="fill-rule:evenodd;"
points="9668,10263
9451,10263
9451,9633
9668,9633
9668,10263
" /> 
<polyline style="fill-rule:evenodd;"
points="9353,10263
9136,10263
9136,9633
9353,9633
9353,10263
" /> 
<polyline style="fill-rule:evenodd;"
points="9038,10263
8821,10263
8821,9633
9038,9633
9038,10263
" /> 
<polyline style="fill-rule:evenodd;"
points="8872,6022
8192,6022
8192,5222
8872,5222
8872,6022
" /> 
</g>
<g style="fill:#000000; fill-opacity:1.0; 
stroke:#000000; stroke-width:680; stroke-opacity:1; 
stroke-linecap:round; stroke-linejoin:round;">
</g>
<g style="fill:#000000; fill-opacity:0.0; 
stroke:#000000; stroke-width:680; stroke-opacity:1; 
stroke-linecap:round; stroke-linejoin:round;">
<path d="M9532 5682
L9532 5562
" />
<path d="M10532 5682
L10532 5562
" />
<path d="M11532 5682
L11532 5562
" />
</g>
<g style="fill:#000000; fill-opacity:0.0; 
stroke:#000000; stroke-width:0; stroke-opacity:1; 
stroke-linecap:round; stroke-linejoin:round;">
</g>
<g style="fill:#000000; fill-opacity:1.0; 
stroke:#000000; stroke-width:0; stroke-opacity:1; 
stroke-linecap:round; stroke-linejoin:round;">
<polyline style="fill-rule:evenodd;"
points="19192,11962
19192,11282
19872,11282
19872,11962
19192,11962
" /> 
</g>
<g style="fill:#000000; fill-opacity:1.0; 
stroke:#000000; stroke-width:680; stroke-opacity:1; 
stroke-linecap:round; stroke-linejoin:round;">
</g>
<g style="fill:#000000; fill-opacity:0.0; 
stroke:#000000; stroke-width:680; stroke-opacity:1; 
stroke-linecap:round; stroke-linejoin:round;">
<path d="M20532 11622
L20532 11622
" />
<path d="M19532 12622
L19532 12622
" />
<path d="M20532 12622
L20532 12622
" />
<path d="M19532 13622
L19532 13622
" />
<path d="M20532 13622
L20532 13622
" />
</g>
<g style="fill:#000000; fill-opacity:0.0; 
stroke:#000000; stroke-width:0; stroke-opacity:1; 
stroke-linecap:round; stroke-linejoin:round;">
</g>
<g style="fill:#000000; fill-opacity:1.0; 
stroke:#000000; stroke-width:0; stroke-opacity:1; 
stroke-linecap:round; stroke-linejoin:round;">
<polyline style="fill-rule:evenodd;"
points="1632,12522
1632,11722
2432,11722
2432,12522
1632,12522
" /> 
</g>
<g style="fill:#000000; fill-opacity:1.0; 
stroke:#000000; stroke-width:800; stroke-opacity:1; 
stroke-linecap:round; stroke-linejoin:round;">
</g>
<g style="fill:#000000; fill-opacity:0.0; 
stroke:#000000; stroke-width:800; stroke-opacity:1; 
stroke-linecap:round; stroke-linejoin:round;">
<path d="M2032 13122
L2032 13122
" />
</g>
<g style="fill:#000000; fill-opacity:0.0; 
stroke:#000000; stroke-width:0; stroke-opacity:1; 
stroke-linecap:round; stroke-linejoin:round;">
</g>
<g style="fill:#000000; fill-opacity:1.0; 
stroke:#000000; stroke-width:0; stroke-opacity:1; 
stroke-linecap:round; stroke-linejoin:round;">
<polyline style="fill-rule:evenodd;"
points="18044,21866
18044,22377
17768,22377
17768,21866
18044,21866
" /> 
<polyline style="fill-rule:evenodd;"
points="17296,21866
17296,22377
17020,22377
17020,21866
17296,21866
" /> 
<polyline style="fill-rule:evenodd;"
points="18044,16866
18044,17377
17768,17377
17768,16866
18044,16866
" /> 
<polyline style="fill-rule:evenodd;"
points="17296,16866
17296,17377
17020,17377
17020,16866
17296,16866
" /> 
<polyline style="fill-rule:evenodd;"
points="16388,10433
15876,10433
15876,10158
16388,10158
16388,10433
" /> 
<polyline style="fill-rule:evenodd;"
points="16388,9685
15876,9685
15876,9410
16388,9410
16388,9685
" /> 
<polyline style="fill-rule:evenodd;"
points="9020,6977
9020,6466
9296,6466
9296,6977
9020,6977
" /> 
<polyline style="fill-rule:evenodd;"
points="9768,6977
9768,6466
10044,6466
10044,6977
9768,6977
" /> 
<circle cx="5032.41" cy="18622" r="275" /> 
</g>
<g style="fill:#000000; fill-opacity:1.0; 
stroke:#000000; stroke-width:39.3701; stroke-opacity:1; 
stroke-linecap:round; stroke-linejoin:round;">
</g>
<g style="fill:#000000; fill-opacity:1.0; 
stroke:#000000; stroke-width:0; stroke-opacity:1; 
stroke-linecap:round; stroke-linejoin:round;">
<circle cx="5032.41" cy="20622" r="275" /> 
</g>
<g style="fill:#000000; fill-opacity:1.0; 
stroke:#000000; stroke-width:39.3701; stroke-opacity:1; 
stroke-linecap:round; stroke-linejoin:round;">
</g>
<g style="fill:#000000; fill-opacity:1.0; 
stroke:#000000; stroke-width:0; stroke-opacity:1; 
stroke-linecap:round; stroke-linejoin:round;">
<circle cx="2032.41" cy="18622" r="275" /> 
</g>
<g style="fill:#000000; fill-opacity:1.0; 
stroke:#000000; stroke-width:39.3701; stroke-opacity:1; 
stroke-linecap:round; stroke-linejoin:round;">
</g>
<g style="fill:#000000; fill-opacity:1.0; 
stroke:#000000; stroke-width:0; stroke-opacity:1; 
stroke-linecap:round; stroke-linejoin:round;">
<circle cx="2032.41" cy="20622" r="275" /> 
</g>
<g style="fill:#000000; fill-opacity:1.0; 
stroke:#000000; stroke-width:39.3701; stroke-opacity:1; 
stroke-linecap:round; stroke-linejoin:round;">
</g>
<g style="fill:#000000; fill-opacity:1.0; 
stroke:#000000; stroke-width:0; stroke-opacity:1; 
stroke-linecap:round; stroke-linejoin:round;">
<circle cx="18032.4" cy="18622" r="275" /> 
</g>
<g style="fill:#000000; fill-opacity:1.0; 
stroke:#000000; stroke-width:39.3701; stroke-opacity:1; 
stroke-linecap:round; stroke-linejoin:round;">
</g>
<g style="fill:#000000; fill-opacity:1.0; 
stroke:#000000; stroke-width:0; stroke-opacity:1; 
stroke-linecap:round; stroke-linejoin:round;">
<circle cx="18032.4" cy="20622" r="275" /> 
</g>
<g style="fill:#000000; fill-opacity:1.0; 
stroke:#000000; stroke-width:39.3701; stroke-opacity:1; 
stroke-linecap:round; stroke-linejoin:round;">
</g>
<g style="fill:#000000; fill-opacity:1.0; 
stroke:#000000; stroke-width:0; stroke-opacity:1; 
stroke-linecap:round; stroke-linejoin:round;">
<circle cx="15032.4" cy="18622" r="275" /> 
</g>
<g style="fill:#000000; fill-opacity:1.0; 
stroke:#000000; stroke-width:39.3701; stroke-opacity:1; 
stroke-linecap:round; stroke-linejoin:round;">
</g>
<g style="fill:#000000; fill-opacity:1.0; 
stroke:#000000; stroke-width:0; stroke-opacity:1; 
stroke-linecap:round; stroke-linejoin:round;">
<circle cx="15032.4" cy="20622" r="275" /> 
</g>
<g style="fill:#000000; fill-opacity:1.0; 
stroke:#000000; stroke-width:39.3701; stroke-opacity:1; 
stroke-linecap:round; stroke-linejoin:round;">
</g>
<g style="fill:#000000; fill-opacity:1.0; 
stroke:#000000; stroke-width:0; stroke-opacity:1; 
stroke-linecap:round; stroke-linejoin:round;">
<circle cx="10032.4" cy="16669.3" r="393.701" /> 
</g>
<g style="fill:#000000; fill-opacity:1.0; 
stroke:#000000; stroke-width:39.3701; stroke-opacity:1; 
stroke-linecap:round; stroke-linejoin:round;">
</g>
<g style="fill:#000000; fill-opacity:1.0; 
stroke:#000000; stroke-width:0; stroke-opacity:1; 
stroke-linecap:round; stroke-linejoin:round;">
<circle cx="9048.16" cy="16669.3" r="393.701" /> 
</g>
<g style="fill:#000000; fill-opacity:1.0; 
stroke:#000000; stroke-width:39.3701; stroke-opacity:1; 
stroke-linecap:round; stroke-linejoin:round;">
</g>
<g style="fill:#000000; fill-opacity:1.0; 
stroke:#000000; stroke-width:0; stroke-opacity:1; 
stroke-linecap:round; stroke-linejoin:round;">
<circle cx="11016.7" cy="16669.3" r="393.701" /> 
</g>
<g style="fill:#000000; fill-opacity:1.0; 
stroke:#000000; stroke-width:39.3701; stroke-opacity:1; 
stroke-linecap:round; stroke-linejoin:round;">
</g>
<g style="fill:#000000; fill-opacity:1.0; 
stroke:#000000; stroke-width:0; stroke-opacity:1; 
stroke-linecap:round; stroke-linejoin:round;">
<circle cx="9048.16" cy="22378" r="393.701" /> 
</g>
<g style="fill:#000000; fill-opacity:1.0; 
stroke:#000000; stroke-width:39.3701; stroke-opacity:1; 
stroke-linecap:round; stroke-linejoin:round;">
</g>
<g style="fill:#000000; fill-opacity:1.0; 
stroke:#000000; stroke-width:0; stroke-opacity:1; 
stroke-linecap:round; stroke-linejoin:round;">
<circle cx="11016.7" cy="22378" r="393.701" /> 
</g>
<g style="fill:#000000; fill-opacity:1.0; 
stroke:#000000; stroke-width:39.3701; stroke-opacity:1; 
stroke-linecap:round; stroke-linejoin:round;">
</g>
<g style="fill:#000000; fill-opacity:1.0; 
stroke:#000000; stroke-width:0; stroke-opacity:1; 
stroke-linecap:round; stroke-linejoin:round;">
<circle cx="7276.51" cy="19622" r="688.976" /> 
</g>
<g style="fill:#000000; fill-opacity:1.0; 
stroke:#000000; stroke-width:39.3701; stroke-opacity:1; 
stroke-linecap:round; stroke-linejoin:round;">
</g>
<g style="fill:#000000; fill-opacity:1.0; 
stroke:#000000; stroke-width:0; stroke-opacity:1; 
stroke-linecap:round; stroke-linejoin:round;">
<circle cx="12788.3" cy="19622" r="688.976" /> 
</g>
<g style="fill:#000000; fill-opacity:1.0; 
stroke:#000000; stroke-width:39.3701; stroke-opacity:1; 
stroke-linecap:round; stroke-linejoin:round;">
</g>
<g style="fill:#000000; fill-opacity:1.0; 
stroke:#000000; stroke-width:0; stroke-opacity:1; 
stroke-linecap:round; stroke-linejoin:round;">
<circle cx="9532.41" cy="8022.05" r="393.701" /> 
</g>
<g style="fill:#000000; fill-opacity:1.0; 
stroke:#000000; stroke-width:39.3701; stroke-opacity:1; 
stroke-linecap:round; stroke-linejoin:round;">
</g>
<g style="fill:#000000; fill-opacity:1.0; 
stroke:#000000; stroke-width:0; stroke-opacity:1; 
stroke-linecap:round; stroke-linejoin:round;">
<circle cx="12432.4" cy="8022.05" r="393.701" /> 
</g>
<g style="fill:#000000; fill-opacity:1.0; 
stroke:#000000; stroke-width:39.3701; stroke-opacity:1; 
stroke-linecap:round; stroke-linejoin:round;">
</g>
<g style="fill:#000000; fill-opacity:1.0; 
stroke:#000000; stroke-width:0; stroke-opacity:1; 
stroke-linecap:round; stroke-linejoin:round;">
<circle cx="6532.41" cy="13722" r="393.701" /> 
</g>
<g style="fill:#000000; fill-opacity:1.0; 
stroke:#000000; stroke-width:39.3701; stroke-opacity:1; 
stroke-linecap:round; stroke-linejoin:round;">
</g>
<g style="fill:#000000; fill-opacity:1.0; 
stroke:#000000; stroke-width:0; stroke-opacity:1; 
stroke-linecap:round; stroke-linejoin:round;">
<circle cx="6532.41" cy="10122" r="393.701" /> 
</g>
<g style="fill:#000000; fill-opacity:1.0; 
stroke:#000000; stroke-width:39.3701; stroke-opacity:1; 
stroke-linecap:round; stroke-linejoin:round;">
</g>
<g style="fill:#000000; fill-opacity:1.0; 
stroke:#000000; stroke-width:0; stroke-opacity:1; 
stroke-linecap:round; stroke-linejoin:round;">
<circle cx="14232.4" cy="21822" r="393.701" /> 
</g>
<g style="fill:#000000; fill-opacity:1.0; 
stroke:#000000; stroke-width:39.3701; stroke-opacity:1; 
stroke-linecap:round; stroke-linejoin:round;">
</g>
<g style="fill:#000000; fill-opacity:1.0; 
stroke:#000000; stroke-width:0; stroke-opacity:1; 
stroke-linecap:round; stroke-linejoin:round;">
<circle cx="14232.4" cy="19422" r="393.701" /> 
</g>
<g style="fill:#000000; fill-opacity:1.0; 
stroke:#000000; stroke-width:39.3701; stroke-opacity:1; 
stroke-linecap:round; stroke-linejoin:round;">
</g>
<g style="fill:#000000; fill-opacity:1.0; 
stroke:#000000; stroke-width:0; stroke-opacity:1; 
stroke-linecap:round; stroke-linejoin:round;">
<circle cx="15232.4" cy="14422" r="393.701" /> 
</g>
<g style="fill:#000000; fill-opacity:1.0; 
stroke:#000000; stroke-width:39.3701; stroke-opacity:1; 
stroke-linecap:round; stroke-linejoin:round;">
</g>
<g style="fill:#000000; fill-opacity:1.0; 
stroke:#000000; stroke-width:0; stroke-opacity:1; 
stroke-linecap:round; stroke-linejoin:round;">
<circle cx="8532.41" cy="9022.05" r="393.701" /> 
</g>
<g style="fill:#000000; fill-opacity:1.0; 
stroke:#000000; stroke-width:39.3701; stroke-opacity:1; 
stroke-linecap:round; stroke-linejoin:round;">
</g>
<g style="fill:#000000; fill-opacity:1.0; 
stroke:#000000; stroke-width:0; stroke-opacity:1; 
stroke-linecap:round; stroke-linejoin:round;">
<circle cx="16932.4" cy="15922" r="393.701" /> 
</g>
<g style="fill:#000000; fill-opacity:1.0; 
stroke:#000000; stroke-width:39.3701; stroke-opacity:1; 
stroke-linecap:round; stroke-linejoin:round;">
</g>
<g style="fill:#000000; fill-opacity:1.0; 
stroke:#000000; stroke-width:0; stroke-opacity:1; 
stroke-linecap:round; stroke-linejoin:round;">
<circle cx="20732.4" cy="15922" r="393.701" /> 
</g>
<g style="fill:#000000; fill-opacity:1.0; 
stroke:#000000; stroke-width:39.3701; stroke-opacity:1; 
stroke-linecap:round; stroke-linejoin:round;">
</g>
<g style="fill:#000000; fill-opacity:1.0; 
stroke:#000000; stroke-width:0; stroke-opacity:1; 
stroke-linecap:round; stroke-linejoin:round;">
<circle cx="17332.4" cy="11522" r="393.701" /> 
</g>
<g style="fill:#000000; fill-opacity:1.0; 
stroke:#000000; stroke-width:39.3701; stroke-opacity:1; 
stroke-linecap:round; stroke-linejoin:round;">
</g>
<g style="fill:#000000; fill-opacity:1.0; 
stroke:#000000; stroke-width:0; stroke-opacity:1; 
stroke-linecap:round; stroke-linejoin:round;">
<circle cx="17332.4" cy="13322" r="393.701" /> 
</g>
<g style="fill:#000000; fill-opacity:1.0; 
stroke:#000000; stroke-width:39.3701; stroke-opacity:1; 
stroke-linecap:round; stroke-linejoin:round;">
</g>
<g style="fill:#000000; fill-opacity:1.0; 
stroke:#000000; stroke-width:0; stroke-opacity:1; 
stroke-linecap:round; stroke-linejoin:round;">
<circle cx="12532.4" cy="9722.05" r="393.701" /> 
</g>
<g style="fill:#000000; fill-opacity:1.0; 
stroke:#000000; stroke-width:39.3701; stroke-opacity:1; 
stroke-linecap:round; stroke-linejoin:round;">
</g>
<g style="fill:#000000; fill-opacity:1.0; 
stroke:#000000; stroke-width:0; stroke-opacity:1; 
stroke-linecap:round; stroke-linejoin:round;">
<circle cx="14532.4" cy="17922" r="393.701" /> 
</g>
<g style="fill:#000000; fill-opacity:1.0; 
stroke:#000000; stroke-width:39.3701; stroke-opacity:1; 
stroke-linecap:round; stroke-linejoin:round;">
</g>
<g style="fill:#000000; fill-opacity:1.0; 
stroke:#000000; stroke-width:0; stroke-opacity:1; 
stroke-linecap:round; stroke-linejoin:round;">
<circle cx="3332.41" cy="14922" r="393.701" /> 
</g>
<g style="fill:#000000; fill-opacity:1.0; 
stroke:#000000; stroke-width:39.3701; stroke-opacity:1; 
stroke-linecap:round; stroke-linejoin:round;">
</g>
<g style="fill:#000000; fill-opacity:1.0; 
stroke:#000000; stroke-width:0; stroke-opacity:1; 
stroke-linecap:round; stroke-linejoin:round;">
<circle cx="9132.41" cy="14722" r="393.701" /> 
</g>
<g style="fill:#000000; fill-opacity:1.0; 
stroke:#000000; stroke-width:39.3701; stroke-opacity:1; 
stroke-linecap:round; stroke-linejoin:round;">
</g>
<g style="fill:#000000; fill-opacity:1.0; 
stroke:#000000; stroke-width:196.85; stroke-opacity:1; 
stroke-linecap:round; stroke-linejoin:round;">
</g>
<g style="fill:#000000; fill-opacity:0.0; 
stroke:#000000; stroke-width:196.85; stroke-opacity:1; 
stroke-linecap:round; stroke-linejoin:round;">
<path d="M16132 10296
L19906 10296
" />
<path d="M20532 10922
L20532 11622
" />
<path d="M19906 10296
L20532 10922
" />
<path d="M14532 10315
L16112 10315
" />
<path d="M16112 10315
L16132 10296
" />
<path d="M11705 12409
L13445 12409
" />
<path d="M14532 11322
L14532 10315
" />
<path d="M13445 12409
L14532 11322
" />
<path d="M11705 12409
L10019 12409
" />
<path d="M10019 12409
L9704 12094
" />
<path d="M9158 6722
L8732 6722
" />
<path d="M8732 6722
L8532 6922
" />
<path d="M5032 12228
L5226 12228
" />
<path d="M5226 12228
L5989 11464
" />
<path d="M5989 11464
L8359 11464
" />
<path d="M8359 11464
L9674 11464
" />
<path d="M9674 11464
L9932 11722
" />
<path d="M9932 11722
L9932 11922
" />
<path d="M9932 11922
L9759 12094
" />
<path d="M9759 12094
L9704 12094
" />
<path d="M9704 12094
L8359 12094
" />
<path d="M8532 5622
L8532 6922
" />
<path d="M8532 6922
L3226 12228
" />
<path d="M5032 12228
L3226 12228
" />
<path d="M3226 12228
L2138 12228
" />
<path d="M2138 12228
L2032 12122
" />
<path d="M14532 9528
L14532 8722
" />
<path d="M9532 8022
L8632 8022
" />
<path d="M13832 8022
L12432 8022
" />
<path d="M14532 8722
L13832 8022
" />
<path d="M11705 11464
L12789 11464
" />
<path d="M13926 9528
L14532 9528
" />
<path d="M13332 10122
L13926 9528
" />
<path d="M13332 10922
L13332 10122
" />
<path d="M12789 11464
L13332 10922
" />
<path d="M6532 13722
L6532 13709
" />
<path d="M6532 13709
L5838 13015
" />
<path d="M17906 22122
L18232 22122
" />
<path d="M19332 21022
L19332 19522
" />
<path d="M18232 22122
L19332 21022
" />
<path d="M8359 11149
L7759 11149
" />
<path d="M7132 10522
L7132 9522
" />
<path d="M7759 11149
L7132 10522
" />
<path d="M9532 5622
L9532 7122
" />
<path d="M9532 7122
L8632 8022
" />
<path d="M8632 8022
L8232 8422
" />
<path d="M8232 8422
L7132 9522
" />
<path d="M6532 13722
L6532 12322
" />
<path d="M7132 9522
L6532 10122
" />
<path d="M8359 11779
L7074 11779
" />
<path d="M5838 13015
L5032 13015
" />
<path d="M7074 11779
L6532 12322
" />
<path d="M6532 12322
L5838 13015
" />
<path d="M5032 20622
L2032 20622
" />
<path d="M5032 20622
L5632 20622
" />
<path d="M6132 21122
L10932 21122
" />
<path d="M5632 20622
L6132 21122
" />
<path d="M15032 20622
L14232 20622
" />
<path d="M10932 21122
L7932 18122
" />
<path d="M13732 21122
L10932 21122
" />
<path d="M14232 20622
L13732 21122
" />
<path d="M18032 20622
L15032 20622
" />
<path d="M18032 20622
L18232 20622
" />
<path d="M18232 20622
L19332 19522
" />
<path d="M19332 19522
L19332 16322
" />
<path d="M20532 13622
L20532 15122
" />
<path d="M18532 17122
L17906 17122
" />
<path d="M20532 15122
L19332 16322
" />
<path d="M19332 16322
L18532 17122
" />
<path d="M10032 16669
L10032 17622
" />
<path d="M10032 17622
L9532 18122
" />
<path d="M9532 18122
L7932 18122
" />
<path d="M7932 18122
L2826 13015
" />
<path d="M5032 13015
L2826 13015
" />
<path d="M2826 13015
L2138 13015
" />
<path d="M2138 13015
L2032 13122
" />
<path d="M15945 22122
L17158 22122
" />
<path d="M13432 17722
L14232 18522
" />
<path d="M9874 14164
L13432 17722
" />
<path d="M9874 13295
L9874 14164
" />
<path d="M14532 22122
L15119 22122
" />
<path d="M14232 21822
L14532 22122
" />
<path d="M14232 18522
L14232 19422
" />
<path d="M15945 17122
L17158 17122
" />
<path d="M10189 13295
L10189 13879
" />
<path d="M13432 17122
L15119 17122
" />
<path d="M10189 13879
L13432 17122
" />
<path d="M8359 12724
L7730 12724
" />
<path d="M11016 15806
L11016 16669
" />
<path d="M10532 15322
L11016 15806
" />
<path d="M8732 15322
L10532 15322
" />
<path d="M7532 14122
L8732 15322
" />
<path d="M7532 12922
L7532 14122
" />
<path d="M7730 12724
L7532 12922
" />
<path d="M8359 12409
L7445 12409
" />
<path d="M9048 16237
L9048 16669
" />
<path d="M7132 14322
L9048 16237
" />
<path d="M7132 12722
L7132 14322
" />
<path d="M7445 12409
L7132 12722
" />
<path d="M9874 9948
L9874 9464
" />
<path d="M18932 13622
L19532 13622
" />
<path d="M18132 14422
L18932 13622
" />
<path d="M15232 14422
L18132 14422
" />
<path d="M9432 9022
L8532 9022
" />
<path d="M9874 9464
L9432 9022
" />
<path d="M10819 13295
L10819 14009
" />
<path d="M10819 14009
L12732 15922
" />
<path d="M12732 15922
L16932 15922
" />
<path d="M20732 15922
L21332 15322
" />
<path d="M21332 15322
L21332 13422
" />
<path d="M21332 13422
L20532 12622
" />
<path d="M11134 13295
L17305 13295
" />
<path d="M17432 11622
L19532 11622
" />
<path d="M17332 11522
L17432 11622
" />
<path d="M17305 13295
L17332 13322
" />
<path d="M11705 12724
L19430 12724
" />
<path d="M19430 12724
L19532 12622
" />
<path d="M11705 10519
L11734 10519
" />
<path d="M11734 10519
L12532 9722
" />
<path d="M14532 17922
L15032 18422
" />
<path d="M15032 18422
L15032 18622
" />
<path d="M16132 9548
L16132 9122
" />
<path d="M12132 7122
L11532 7722
" />
<path d="M14132 7122
L12132 7122
" />
<path d="M16132 9122
L14132 7122
" />
<path d="M10504 9948
L10504 9349
" />
<path d="M11532 8322
L11532 7722
" />
<path d="M11532 7722
L11532 5622
" />
<path d="M10504 9349
L11532 8322
" />
<path d="M9906 6722
L10132 6722
" />
<path d="M10132 6722
L10532 7122
" />
<path d="M10189 9948
L10189 9164
" />
<path d="M10532 8822
L10532 7122
" />
<path d="M10532 7122
L10532 5622
" />
<path d="M10189 9164
L10532 8822
" />
<path d="M8930 13295
L8930 14519
" />
<path d="M4432 18622
L5032 18622
" />
<path d="M3332 17522
L4432 18622
" />
<path d="M3332 14922
L3332 17522
" />
<path d="M8930 14519
L9132 14722
" />
<path d="M5032 18622
L2032 18622
" />
</g>
<g style="fill:#000000; fill-opacity:1.0; 
stroke:#000000; stroke-width:100; stroke-opacity:1; 
stroke-linecap:round; stroke-linejoin:round;">
<polyline style="fill-rule:evenodd;"
points="21682,24272
16750,24272
16781,24225
16802,24122
16802,23372
16781,23268
16723,23181
16635,23122
16532,23102
6782,23102
6679,23122
6591,23181
6533,23268
6512,23372
6512,24122
6533,24225
6564,24272
1382,24272
1382,22505
8404,22505
8502,22742
8683,22923
8919,23021
9175,23021
9412,22923
9593,22743
9691,22506
9691,22505
10372,22505
10470,22742
10651,22923
10888,23021
11144,23021
11380,22923
11562,22743
11660,22506
11660,22250
11562,22013
11498,21949
13588,21949
13686,22186
13867,22367
14103,22465
14359,22465
14408,22445
14421,22448
14532,22470
14532,22470
14658,22470
14700,22535
14784,22592
14883,22612
15355,22612
15448,22595
15533,22540
15533,22540
15610,22592
15709,22612
16181,22612
16274,22595
16359,22540
16407,22470
16783,22470
16783,22470
16837,22555
16921,22612
17020,22632
17296,22632
17388,22615
17473,22560
17531,22477
17533,22463
17556,22519
17627,22589
17718,22627
17793,22627
17856,22565
17856,22172
17956,22172
17956,22565
18018,22627
18093,22627
18185,22589
18256,22519
18294,22427
18294,22234
18231,22172
17956,22172
17856,22172
17848,22172
17848,22072
17856,22072
17856,21678
17956,21678
17956,22072
18231,22072
18294,22009
18294,21816
18256,21724
18185,21654
18093,21616
18018,21616
17956,21678
17856,21678
17793,21616
17718,21616
17627,21654
17556,21724
17534,21778
17533,21773
17478,21688
17395,21631
17296,21611
17020,21611
16927,21628
16842,21683
16785,21766
16784,21773
16406,21773
16364,21708
16280,21651
16181,21631
15709,21631
15616,21648
15531,21703
15531,21703
15454,21651
15355,21631
14883,21631
14852,21636
14778,21457
14597,21276
14361,21178
14104,21178
13868,21276
13687,21456
13588,21693
13588,21949
11498,21949
11381,21832
11145,21734
10889,21734
10652,21831
10471,22012
10373,22249
10372,22505
9691,22505
9691,22250
9594,22013
9413,21832
9176,21734
8920,21734
8684,21831
8502,22012
8404,22249
8404,22505
1382,22505
1382,20989
1735,20989
1759,21082
1956,21151
2165,21140
2305,21082
2329,20989
4735,20989
4759,21082
4956,21151
5165,21140
5305,21082
5329,20989
14735,20989
14759,21082
14956,21151
15165,21140
15305,21082
15329,20989
17735,20989
17759,21082
17956,21151
18165,21140
18305,21082
18329,20989
18032,20692
17735,20989
15329,20989
15032,20692
14735,20989
5329,20989
5032,20692
4735,20989
2329,20989
2032,20692
1735,20989
1382,20989
1382,20546
1502,20546
1513,20754
1571,20894
1664,20919
1961,20622
2103,20622
2400,20919
2492,20894
2562,20697
2554,20546
4502,20546
4513,20754
4571,20894
4664,20919
4961,20622
5103,20622
5400,20919
5492,20894
5562,20697
5550,20489
5492,20349
5400,20324
5103,20622
4961,20622
4664,20324
4571,20349
4502,20546
2554,20546
2550,20489
2492,20349
2400,20324
2103,20622
1961,20622
1664,20324
1571,20349
1502,20546
1382,20546
1382,20254
1735,20254
2032,20551
2329,20254
4735,20254
5032,20551
5329,20254
5305,20161
5108,20092
4899,20103
4759,20161
4735,20254
2329,20254
2305,20161
2108,20092
1899,20103
1759,20161
1735,20254
1382,20254
1382,19808
6337,19808
6480,20153
6743,20417
7088,20560
7462,20561
7807,20418
8072,20154
8215,19809
8215,19436
8072,19090
7809,18826
7464,18683
7090,18682
6745,18825
6480,19089
6337,19434
6337,19808
1382,19808
1382,18726
1507,18726
1587,18919
1734,19066
1927,19146
2136,19147
2329,19067
2426,18970
4432,18970
4432,18970
4432,18970
4638,18970
4734,19066
4927,19146
5136,19147
5329,19067
5477,18919
5557,18726
5557,18518
5477,18325
5330,18177
5137,18097
4928,18096
4735,18176
4638,18273
4576,18273
3680,17377
3680,15474
3696,15468
3877,15287
3976,15050
3976,14794
3878,14557
3697,14376
3461,14278
3204,14278
2968,14376
2787,14556
2688,14793
2688,15049
2786,15286
2967,15467
2983,15474
2983,17522
2983,17522
2999,17600
3010,17655
3055,17722
3086,17768
3591,18273
2426,18273
2330,18177
2137,18097
1928,18096
1735,18176
1587,18324
1507,18517
1507,18726
1382,18726
1382,13272
1400,13272
1478,13462
1651,13648
1881,13754
1982,13707
1982,13172
2082,13172
2082,13707
2183,13754
2413,13648
2586,13462
2664,13272
2617,13172
2082,13172
1982,13172
1447,13172
1400,13272
1382,13272
1382,13128
4536,13128
4536,13262
4574,13354
4644,13424
4736,13462
4919,13462
4982,13400
4982,13065
5082,13065
5082,13400
5144,13462
5328,13462
5420,13424
5490,13354
5528,13262
5528,13128
5465,13065
5082,13065
4982,13065
4598,13065
4536,13128
1382,13128
1382,12548
1394,12614
1449,12699
1513,12743
1478,12781
1400,12971
1447,13072
1982,13072
1982,13064
2082,13064
2082,13072
2617,13072
2664,12971
2586,12781
2550,12743
2610,12704
2667,12621
2676,12576
3226,12576
3226,12576
3226,12576
4586,12576
4603,12602
4630,12621
4574,12677
4536,12769
4536,12903
4598,12965
4982,12965
4982,12957
5082,12957
5082,12965
5465,12965
5528,12903
5528,12769
5490,12677
5434,12621
5456,12607
5513,12524
5533,12425
5533,12413
6134,11812
7794,11812
7794,11829
7848,11829
7831,11854
7794,11892
7794,11937
7797,11945
7789,11986
7789,12061
7445,12061
7445,12061
7311,12087
7293,12099
7198,12163
7198,12163
6886,12475
6810,12588
6810,12588
6783,12722
6783,12722
6783,14322
6783,14322
6803,14422
6810,14455
6831,14486
6886,14568
8562,16244
8502,16304
8404,16540
8404,16796
8502,17033
8683,17214
8919,17312
9175,17313
9412,17215
9504,17123
9649,17123
9688,17228
9928,17317
10184,17307
10376,17228
10415,17123
10032,16740
9649,17123
9504,17123
9576,17051
9578,17052
9961,16669
9578,16286
9576,16287
9504,16215
9649,16215
10032,16598
10415,16215
10376,16110
10136,16021
9880,16030
9688,16110
9649,16215
9504,16215
9413,16123
9370,16106
9370,16104
9337,16055
9294,15991
9294,15991
8973,15670
10388,15670
10668,15950
10668,16116
10652,16123
10488,16287
10486,16286
10103,16669
10486,17052
10488,17051
10651,17214
10888,17312
11144,17313
11380,17215
11562,17034
11660,16797
11660,16541
11590,16373
13186,17968
13186,17968
13883,18666
13883,18869
13868,18876
13687,19056
13628,19197
13584,19090
13320,18826
12975,18683
12602,18682
12257,18825
11992,19089
11849,19434
11849,19808
11991,20153
12255,20417
12600,20560
12974,20561
13010,20546
14502,20546
14513,20754
14571,20894
14664,20919
14961,20622
15103,20622
15400,20919
15492,20894
15562,20697
15554,20546
17502,20546
17513,20754
17571,20894
17664,20919
17961,20622
18103,20622
18400,20919
18492,20894
18562,20697
18550,20489
18492,20349
18400,20324
18103,20622
17961,20622
17664,20324
17571,20349
17502,20546
15554,20546
15550,20489
15492,20349
15400,20324
15103,20622
14961,20622
14664,20324
14571,20349
14502,20546
13010,20546
13319,20418
13484,20254
14735,20254
15032,20551
15329,20254
17735,20254
18032,20551
18329,20254
18305,20161
18108,20092
17899,20103
17759,20161
17735,20254
15329,20254
15305,20161
15108,20092
14899,20103
14759,20161
14735,20254
13484,20254
13583,20154
13722,19821
13867,19967
14103,20065
14359,20065
14596,19968
14777,19787
14876,19550
14876,19294
14791,19090
14927,19146
15136,19147
15329,19067
15477,18919
15557,18726
15557,18726
17507,18726
17587,18919
17734,19066
17927,19146
18136,19147
18329,19067
18477,18919
18557,18726
18557,18518
18477,18325
18330,18177
18137,18097
17928,18096
17735,18176
17587,18324
17507,18517
17507,18726
15557,18726
15557,18518
15477,18325
15330,18177
15244,18141
15169,18066
15176,18050
15176,17794
15101,17612
15355,17612
15448,17595
15533,17540
15533,17540
15610,17592
15709,17612
16181,17612
16274,17595
16359,17540
16407,17470
16783,17470
16783,17470
16837,17555
16921,17612
17020,17632
17296,17632
17388,17615
17473,17560
17531,17477
17533,17463
17556,17519
17627,17589
17718,17627
17793,17627
17856,17565
17856,17172
17956,17172
17956,17565
18018,17627
18093,17627
18185,17589
18256,17519
18294,17427
18294,17234
18231,17172
17956,17172
17856,17172
17848,17172
17848,17072
17856,17072
17856,16678
17956,16678
17956,17072
18231,17072
18294,17009
18294,16816
18256,16724
18185,16654
18093,16616
18018,16616
17956,16678
17856,16678
17793,16616
17718,16616
17627,16654
17556,16724
17534,16778
17533,16773
17478,16688
17395,16631
17296,16611
17020,16611
16927,16628
16842,16683
16785,16766
16784,16773
16406,16773
16364,16708
16280,16651
16181,16631
15709,16631
15616,16648
15531,16703
15531,16703
15454,16651
15355,16631
14883,16631
14790,16648
14705,16703
14657,16773
13576,16773
13073,16270
16379,16270
16386,16286
16567,16467
16803,16565
17059,16565
17296,16468
17477,16287
17576,16050
17576,15794
17478,15557
17297,15376
17061,15278
16804,15278
16568,15376
16387,15556
16380,15573
12876,15573
11168,13865
11243,13865
11335,13847
11420,13792
11477,13709
11491,13643
16768,13643
16786,13686
16967,13867
17203,13965
17459,13965
17696,13868
17877,13687
17976,13450
17976,13194
17925,13072
19153,13072
19227,13122
19103,13204
19057,13273
18932,13273
18932,13273
18823,13295
18799,13300
18686,13375
18686,13375
17988,14073
15784,14073
15778,14057
15597,13876
15361,13778
15104,13778
14868,13876
14687,14056
14588,14293
14588,14549
14686,14786
14867,14967
15103,15065
15359,15065
15596,14968
15777,14787
15784,14770
18132,14770
18132,14770
18243,14748
18265,14743
18378,14668
19065,13981
19103,14039
19295,14167
19520,14212
19543,14212
19769,14167
19961,14039
20032,13932
20182,14097
20391,14194
20482,14147
20482,13672
20474,13672
20474,13572
20482,13572
20482,13564
20582,13564
20582,13572
20590,13572
20590,13672
20582,13672
20582,14147
20673,14194
20882,14097
20983,13985
20983,15177
20876,15284
20861,15278
20604,15278
20368,15376
20187,15556
20088,15793
20088,16049
20186,16286
20367,16467
20603,16565
20859,16565
21096,16468
21277,16287
21376,16050
21376,15794
21369,15777
21578,15568
21578,15568
21654,15455
21680,15322
21680,13422
21680,13422
21654,13288
21654,13288
21578,13175
21578,13175
21115,12712
21133,12622
21089,12396
20961,12204
20837,12122
20961,12039
21089,11847
21133,11622
21089,11396
20961,11204
20880,11151
20880,10922
20880,10922
20854,10788
20808,10720
20778,10675
20778,10675
20152,10049
20117,10026
20039,9974
20005,9967
19906,9947
19906,9947
16522,9947
16487,9923
16482,9922
16566,9868
16623,9784
16643,9685
16643,9410
16625,9317
16571,9232
16487,9175
16480,9174
16480,9122
16480,9122
16458,9010
16454,8988
16378,8875
16378,8875
14378,6875
14348,6855
14265,6800
14243,6795
14132,6773
14132,6773
12132,6773
11999,6800
11886,6875
11886,6875
11880,6880
11880,6157
11949,6111
12077,5920
12122,5694
12122,5549
12077,5323
11949,5132
11758,5004
11532,4959
11306,5004
11115,5132
11032,5256
10949,5132
10758,5004
10532,4959
10306,5004
10115,5132
10033,5253
9887,5090
9679,4990
9673,4989
9582,5036
9582,5572
9590,5572
9590,5672
9582,5672
9582,6207
9652,6243
9590,6283
9533,6366
9532,6372
9478,6288
9413,6243
9482,6207
9482,5672
9474,5672
9474,5572
9482,5572
9482,5036
9391,4989
9384,4990
9177,5090
9115,5159
9109,5129
9055,5044
8971,4987
8872,4967
8192,4967
8099,4984
8014,5039
7957,5122
7937,5222
7937,6022
7954,6114
8009,6199
8093,6256
8183,6275
8183,6777
3081,11879
2687,11879
2687,11722
2669,11629
2615,11544
2531,11487
2432,11467
1632,11467
1539,11484
1454,11539
1397,11622
1382,11697
1382,3872
6512,3872
6512,4622
6533,4725
6591,4812
6679,4871
6782,4891
16032,4891
16135,4871
16223,4812
16281,4725
16302,4622
16302,3872
16281,3768
16223,3681
16135,3622
16032,3602
6782,3602
6679,3622
6591,3681
6533,3768
6512,3872
1382,3872
1382,3572
21682,3572
21682,24272
" /> 
<polyline style="fill-rule:evenodd;"
points="15726,9209
15698,9227
15641,9311
15621,9410
15621,9685
15639,9778
15693,9863
15777,9920
15782,9921
15711,9967
14978,9967
14961,9941
14934,9922
14990,9866
15028,9774
15028,9640
14965,9578
14582,9578
14582,9586
14482,9586
14482,9578
14098,9578
14036,9640
14036,9774
14074,9866
14130,9922
14108,9936
14051,10019
14031,10118
14031,10512
14048,10605
14103,10690
14183,10745
14183,11177
13300,12061
12275,12061
12275,11986
12265,11935
12275,11887
12275,11671
12267,11629
12270,11622
12270,11577
12232,11539
12203,11493
12160,11464
12198,11440
12233,11389
12270,11352
12270,11306
12267,11298
12275,11257
12275,11041
12265,10990
12275,10942
12275,10726
12265,10675
12275,10627
12275,10471
12388,10359
12403,10365
12659,10365
12896,10268
13077,10087
13176,9850
13176,9594
13078,9357
13002,9281
14036,9281
14036,9415
14098,9478
14482,9478
14482,9143
14582,9143
14582,9478
14965,9478
15028,9415
15028,9281
14990,9189
14920,9119
14828,9081
14644,9081
14582,9143
14482,9143
14419,9081
14236,9081
14144,9119
14074,9189
14036,9281
13002,9281
12897,9176
12661,9078
12404,9078
12168,9176
11987,9356
11888,9593
11888,9849
11895,9866
11605,10156
11497,10156
11497,9633
11480,9541
11425,9456
11342,9399
11243,9378
11026,9378
10975,9388
10961,9385
11778,8568
11778,8568
11854,8455
11880,8322
11880,7866
12276,7470
13988,7470
15726,9209
" /> 
<polyline style="fill-rule:evenodd;"
points="9585,7155
9669,7212
9768,7232
10044,7232
10133,7216
10183,7266
10183,8677
9943,8918
9894,8991
9678,8775
9675,8773
9565,8700
9543,8695
9432,8673
9432,8673
9084,8673
9078,8657
8897,8476
8661,8378
8404,8378
8168,8476
7987,8656
7888,8893
7888,9149
7986,9386
8167,9567
8403,9665
8566,9665
8566,10156
8044,10156
7951,10173
7866,10228
7809,10312
7789,10411
7789,10627
7798,10678
7789,10726
7789,10942
7797,10984
7794,10991
7794,11037
7832,11075
7847,11099
7794,11099
7794,11116
5989,11116
5856,11142
5743,11218
5743,11218
5185,11776
4786,11776
4693,11794
4608,11848
4587,11879
4067,11879
8778,7168
8778,7168
8819,7127
8837,7155
8921,7212
9020,7232
9296,7232
9388,7215
9473,7160
9531,7077
9532,7071
9585,7155
" /> 
</g>
<g style="fill:#FFFFFF; fill-opacity:1.0; 
stroke:#FFFFFF; stroke-width:100; stroke-opacity:1; 
stroke-linecap:round; stroke-linejoin:round;">
</g>
<g style="fill:#FFFFFF; fill-opacity:1.0; 
stroke:#FFFFFF; stroke-width:0; stroke-opacity:1; 
stroke-linecap:round; stroke-linejoin:round;">
<circle cx="9532.41" cy="8022.05" r="216.535" /> 
</g>
<g style="fill:#FFFFFF; fill-opacity:1.0; 
stroke:#FFFFFF; stroke-width:39.3701; stroke-opacity:1; 
stroke-linecap:round; stroke-linejoin:round;">
</g>
<g style="fill:#FFFFFF; fill-opacity:1.0; 
stroke:#FFFFFF; stroke-width:0; stroke-opacity:1; 
stroke-linecap:round; stroke-linejoin:round;">
<circle cx="12432.4" cy="8022.05" r="216.535" /> 
</g>
<g style="fill:#FFFFFF; fill-opacity:1.0; 
stroke:#FFFFFF; stroke-width:39.3701; stroke-opacity:1; 
stroke-linecap:round; stroke-linejoin:round;">
</g>
<g style="fill:#FFFFFF; fill-opacity:1.0; 
stroke:#FFFFFF; stroke-width:0; stroke-opacity:1; 
stroke-linecap:round; stroke-linejoin:round;">
<circle cx="6532.41" cy="13722" r="216.535" /> 
</g>
<g style="fill:#FFFFFF; fill-opacity:1.0; 
stroke:#FFFFFF; stroke-width:39.3701; stroke-opacity:1; 
stroke-linecap:round; stroke-linejoin:round;">
</g>
<g style="fill:#FFFFFF; fill-opacity:1.0; 
stroke:#FFFFFF; stroke-width:0; stroke-opacity:1; 
stroke-linecap:round; stroke-linejoin:round;">
<circle cx="6532.41" cy="10122" r="216.535" /> 
</g>
<g style="fill:#FFFFFF; fill-opacity:1.0; 
stroke:#FFFFFF; stroke-width:39.3701; stroke-opacity:1; 
stroke-linecap:round; stroke-linejoin:round;">
</g>
<g style="fill:#FFFFFF; fill-opacity:1.0; 
stroke:#FFFFFF; stroke-width:0; stroke-opacity:1; 
stroke-linecap:round; stroke-linejoin:round;">
<circle cx="14232.4" cy="21822" r="216.535" /> 
</g>
<g style="fill:#FFFFFF; fill-opacity:1.0; 
stroke:#FFFFFF; stroke-width:39.3701; stroke-opacity:1; 
stroke-linecap:round; stroke-linejoin:round;">
</g>
<g style="fill:#FFFFFF; fill-opacity:1.0; 
stroke:#FFFFFF; stroke-width:0; stroke-opacity:1; 
stroke-linecap:round; stroke-linejoin:round;">
<circle cx="14232.4" cy="19422" r="216.535" /> 
</g>
<g style="fill:#FFFFFF; fill-opacity:1.0; 
stroke:#FFFFFF; stroke-width:39.3701; stroke-opacity:1; 
stroke-linecap:round; stroke-linejoin:round;">
</g>
<g style="fill:#FFFFFF; fill-opacity:1.0; 
stroke:#FFFFFF; stroke-width:0; stroke-opacity:1; 
stroke-linecap:round; stroke-linejoin:round;">
<circle cx="15232.4" cy="14422" r="216.535" /> 
</g>
<g style="fill:#FFFFFF; fill-opacity:1.0; 
stroke:#FFFFFF; stroke-width:39.3701; stroke-opacity:1; 
stroke-linecap:round; stroke-linejoin:round;">
</g>
<g style="fill:#FFFFFF; fill-opacity:1.0; 
stroke:#FFFFFF; stroke-width:0; stroke-opacity:1; 
stroke-linecap:round; stroke-linejoin:round;">
<circle cx="8532.41" cy="9022.05" r="216.535" /> 
</g>
<g style="fill:#FFFFFF; fill-opacity:1.0; 
stroke:#FFFFFF; stroke-width:39.3701; stroke-opacity:1; 
stroke-linecap:round; stroke-linejoin:round;">
</g>
<g style="fill:#FFFFFF; fill-opacity:1.0; 
stroke:#FFFFFF; stroke-width:0; stroke-opacity:1; 
stroke-linecap:round; stroke-linejoin:round;">
<circle cx="16932.4" cy="15922" r="216.535" /> 
</g>
<g style="fill:#FFFFFF; fill-opacity:1.0; 
stroke:#FFFFFF; stroke-width:39.3701; stroke-opacity:1; 
stroke-linecap:round; stroke-linejoin:round;">
</g>
<g style="fill:#FFFFFF; fill-opacity:1.0; 
stroke:#FFFFFF; stroke-width:0; stroke-opacity:1; 
stroke-linecap:round; stroke-linejoin:round;">
<circle cx="20732.4" cy="15922" r="216.535" /> 
</g>
<g style="fill:#FFFFFF; fill-opacity:1.0; 
stroke:#FFFFFF; stroke-width:39.3701; stroke-opacity:1; 
stroke-linecap:round; stroke-linejoin:round;">
</g>
<g style="fill:#FFFFFF; fill-opacity:1.0; 
stroke:#FFFFFF; stroke-width:0; stroke-opacity:1; 
stroke-linecap:round; stroke-linejoin:round;">
<circle cx="17332.4" cy="11522" r="216.535" /> 
</g>
<g style="fill:#FFFFFF; fill-opacity:1.0; 
stroke:#FFFFFF; stroke-width:39.3701; stroke-opacity:1; 
stroke-linecap:round; stroke-linejoin:round;">
</g>
<g style="fill:#FFFFFF; fill-opacity:1.0; 
stroke:#FFFFFF; stroke-width:0; stroke-opacity:1; 
stroke-linecap:round; stroke-linejoin:round;">
<circle cx="17332.4" cy="13322" r="216.535" /> 
</g>
<g style="fill:#FFFFFF; fill-opacity:1.0; 
stroke:#FFFFFF; stroke-width:39.3701; stroke-opacity:1; 
stroke-linecap:round; stroke-linejoin:round;">
</g>
<g style="fill:#FFFFFF; fill-opacity:1.0; 
stroke:#FFFFFF; stroke-width:0; stroke-opacity:1; 
stroke-linecap:round; stroke-linejoin:round;">
<circle cx="12532.4" cy="9722.05" r="216.535" /> 
</g>
<g style="fill:#FFFFFF; fill-opacity:1.0; 
stroke:#FFFFFF; stroke-width:39.3701; stroke-opacity:1; 
stroke-linecap:round; stroke-linejoin:round;">
</g>
<g style="fill:#FFFFFF; fill-opacity:1.0; 
stroke:#FFFFFF; stroke-width:0; stroke-opacity:1; 
stroke-linecap:round; stroke-linejoin:round;">
<circle cx="14532.4" cy="17922" r="216.535" /> 
</g>
<g style="fill:#FFFFFF; fill-opacity:1.0; 
stroke:#FFFFFF; stroke-width:39.3701; stroke-opacity:1; 
stroke-linecap:round; stroke-linejoin:round;">
</g>
<g style="fill:#FFFFFF; fill-opacity:1.0; 
stroke:#FFFFFF; stroke-width:0; stroke-opacity:1; 
stroke-linecap:round; stroke-linejoin:round;">
<circle cx="3332.41" cy="14922" r="216.535" /> 
</g>
<g style="fill:#FFFFFF; fill-opacity:1.0; 
stroke:#FFFFFF; stroke-width:39.3701; stroke-opacity:1; 
stroke-linecap:round; stroke-linejoin:round;">
</g>
<g style="fill:#FFFFFF; fill-opacity:1.0; 
stroke:#FFFFFF; stroke-width:0; stroke-opacity:1; 
stroke-linecap:round; stroke-linejoin:round;">
<circle cx="9132.41" cy="14722" r="216.535" /> 
</g>
<g style="fill:#FFFFFF; fill-opacity:1.0; 
stroke:#FFFFFF; stroke-width:39.3701; stroke-opacity:1; 
stroke-linecap:round; stroke-linejoin:round;">
</g>
<g style="fill:#FFFFFF; fill-opacity:1.0; 
stroke:#FFFFFF; stroke-width:0; stroke-opacity:1; 
stroke-linecap:round; stroke-linejoin:round;">
<circle cx="8532.41" cy="5622.05" r="200" /> 
</g>
<g style="fill:#FFFFFF; fill-opacity:1.0; 
stroke:#FFFFFF; stroke-width:39.3701; stroke-opacity:1; 
stroke-linecap:round; stroke-linejoin:round;">
</g>
<g style="fill:#FFFFFF; fill-opacity:1.0; 
stroke:#FFFFFF; stroke-width:0; stroke-opacity:1; 
stroke-linecap:round; stroke-linejoin:round;">
<circle cx="9532.41" cy="5622.05" r="200" /> 
</g>
<g style="fill:#FFFFFF; fill-opacity:1.0; 
stroke:#FFFFFF; stroke-width:39.3701; stroke-opacity:1; 
stroke-linecap:round; stroke-linejoin:round;">
</g>
<g style="fill:#FFFFFF; fill-opacity:1.0; 
stroke:#FFFFFF; stroke-width:0; stroke-opacity:1; 
stroke-linecap:round; stroke-linejoin:round;">
<circle cx="10532.4" cy="5622.05" r="200" /> 
</g>
<g style="fill:#FFFFFF; fill-opacity:1.0; 
stroke:#FFFFFF; stroke-width:39.3701; stroke-opacity:1; 
stroke-linecap:round; stroke-linejoin:round;">
</g>
<g style="fill:#FFFFFF; fill-opacity:1.0; 
stroke:#FFFFFF; stroke-width:0; stroke-opacity:1; 
stroke-linecap:round; stroke-linejoin:round;">
<circle cx="11532.4" cy="5622.05" r="200" /> 
</g>
<g style="fill:#FFFFFF; fill-opacity:1.0; 
stroke:#FFFFFF; stroke-width:39.3701; stroke-opacity:1; 
stroke-linecap:round; stroke-linejoin:round;">
</g>
<g style="fill:#FFFFFF; fill-opacity:1.0; 
stroke:#FFFFFF; stroke-width:0; stroke-opacity:1; 
stroke-linecap:round; stroke-linejoin:round;">
<circle cx="19532.4" cy="11622" r="200" /> 
</g>
<g style="fill:#FFFFFF; fill-opacity:1.0; 
stroke:#FFFFFF; stroke-width:39.3701; stroke-opacity:1; 
stroke-linecap:round; stroke-linejoin:round;">
</g>
<g style="fill:#FFFFFF; fill-opacity:1.0; 
stroke:#FFFFFF; stroke-width:0; stroke-opacity:1; 
stroke-linecap:round; stroke-linejoin:round;">
<circle cx="20532.4" cy="11622" r="200" /> 
</g>
<g style="fill:#FFFFFF; fill-opacity:1.0; 
stroke:#FFFFFF; stroke-width:39.3701; stroke-opacity:1; 
stroke-linecap:round; stroke-linejoin:round;">
</g>
<g style="fill:#FFFFFF; fill-opacity:1.0; 
stroke:#FFFFFF; stroke-width:0; stroke-opacity:1; 
stroke-linecap:round; stroke-linejoin:round;">
<circle cx="19532.4" cy="12622" r="200" /> 
</g>
<g style="fill:#FFFFFF; fill-opacity:1.0; 
stroke:#FFFFFF; stroke-width:39.3701; stroke-opacity:1; 
stroke-linecap:round; stroke-linejoin:round;">
</g>
<g style="fill:#FFFFFF; fill-opacity:1.0; 
stroke:#FFFFFF; stroke-width:0; stroke-opacity:1; 
stroke-linecap:round; stroke-linejoin:round;">
<circle cx="20532.4" cy="12622" r="200" /> 
</g>
<g style="fill:#FFFFFF; fill-opacity:1.0; 
stroke:#FFFFFF; stroke-width:39.3701; stroke-opacity:1; 
stroke-linecap:round; stroke-linejoin:round;">
</g>
<g style="fill:#FFFFFF; fill-opacity:1.0; 
stroke:#FFFFFF; stroke-width:0; stroke-opacity:1; 
stroke-linecap:round; stroke-linejoin:round;">
<circle cx="19532.4" cy="13622" r="200" /> 
</g>
<g style="fill:#FFFFFF; fill-opacity:1.0; 
stroke:#FFFFFF; stroke-width:39.3701; stroke-opacity:1; 
stroke-linecap:round; stroke-linejoin:round;">
</g>
<g style="fill:#FFFFFF; fill-opacity:1.0; 
stroke:#FFFFFF; stroke-width:0; stroke-opacity:1; 
stroke-linecap:round; stroke-linejoin:round;">
<circle cx="20532.4" cy="13622" r="200" /> 
</g>
<g style="fill:#FFFFFF; fill-opacity:1.0; 
stroke:#FFFFFF; stroke-width:39.3701; stroke-opacity:1; 
stroke-linecap:round; stroke-linejoin:round;">
</g>
<g style="fill:#FFFFFF; fill-opacity:1.0; 
stroke:#FFFFFF; stroke-width:0; stroke-opacity:1; 
stroke-linecap:round; stroke-linejoin:round;">
<circle cx="2032.41" cy="12122" r="200" /> 
</g>
<g style="fill:#FFFFFF; fill-opacity:1.0; 
stroke:#FFFFFF; stroke-width:39.3701; stroke-opacity:1; 
stroke-linecap:round; stroke-linejoin:round;">
</g>
<g style="fill:#FFFFFF; fill-opacity:1.0; 
stroke:#FFFFFF; stroke-width:0; stroke-opacity:1; 
stroke-linecap:round; stroke-linejoin:round;">
<circle cx="2032.41" cy="13122" r="200" /> 
</g>
<g style="fill:#FFFFFF; fill-opacity:1.0; 
stroke:#FFFFFF; stroke-width:39.3701; stroke-opacity:1; 
stroke-linecap:round; stroke-linejoin:round;">
</g>
<g style="fill:#FFFFFF; fill-opacity:1.0; 
stroke:#FFFFFF; stroke-width:0; stroke-opacity:1; 
stroke-linecap:round; stroke-linejoin:round;">
<circle cx="5032.41" cy="18622" r="160" /> 
</g>
<g style="fill:#FFFFFF; fill-opacity:1.0; 
stroke:#FFFFFF; stroke-width:39.3701; stroke-opacity:1; 
stroke-linecap:round; stroke-linejoin:round;">
</g>
<g style="fill:#FFFFFF; fill-opacity:1.0; 
stroke:#FFFFFF; stroke-width:0; stroke-opacity:1; 
stroke-linecap:round; stroke-linejoin:round;">
<circle cx="5032.41" cy="20622" r="160" /> 
</g>
<g style="fill:#FFFFFF; fill-opacity:1.0; 
stroke:#FFFFFF; stroke-width:39.3701; stroke-opacity:1; 
stroke-linecap:round; stroke-linejoin:round;">
</g>
<g style="fill:#FFFFFF; fill-opacity:1.0; 
stroke:#FFFFFF; stroke-width:0; stroke-opacity:1; 
stroke-linecap:round; stroke-linejoin:round;">
<circle cx="2032.41" cy="18622" r="160" /> 
</g>
<g style="fill:#FFFFFF; fill-opacity:1.0; 
stroke:#FFFFFF; stroke-width:39.3701; stroke-opacity:1; 
stroke-linecap:round; stroke-linejoin:round;">
</g>
<g style="fill:#FFFFFF; fill-opacity:1.0; 
stroke:#FFFFFF; stroke-width:0; stroke-opacity:1; 
stroke-linecap:round; stroke-linejoin:round;">
<circle cx="2032.41" cy="20622" r="160" /> 
</g>
<g style="fill:#FFFFFF; fill-opacity:1.0; 
stroke:#FFFFFF; stroke-width:39.3701; stroke-opacity:1; 
stroke-linecap:round; stroke-linejoin:round;">
</g>
<g style="fill:#FFFFFF; fill-opacity:1.0; 
stroke:#FFFFFF; stroke-width:0; stroke-opacity:1; 
stroke-linecap:round; stroke-linejoin:round;">
<circle cx="18032.4" cy="18622" r="160" /> 
</g>
<g style="fill:#FFFFFF; fill-opacity:1.0; 
stroke:#FFFFFF; stroke-width:39.3701; stroke-opacity:1; 
stroke-linecap:round; stroke-linejoin:round;">
</g>
<g style="fill:#FFFFFF; fill-opacity:1.0; 
stroke:#FFFFFF; stroke-width:0; stroke-opacity:1; 
stroke-linecap:round; stroke-linejoin:round;">
<circle cx="18032.4" cy="20622" r="160" /> 
</g>
<g style="fill:#FFFFFF; fill-opacity:1.0; 
stroke:#FFFFFF; stroke-width:39.3701; stroke-opacity:1; 
stroke-linecap:round; stroke-linejoin:round;">
</g>
<g style="fill:#FFFFFF; fill-opacity:1.0; 
stroke:#FFFFFF; stroke-width:0; stroke-opacity:1; 
stroke-linecap:round; stroke-linejoin:round;">
<circle cx="15032.4" cy="18622" r="160" /> 
</g>
<g style="fill:#FFFFFF; fill-opacity:1.0; 
stroke:#FFFFFF; stroke-width:39.3701; stroke-opacity:1; 
stroke-linecap:round; stroke-linejoin:round;">
</g>
<g style="fill:#FFFFFF; fill-opacity:1.0; 
stroke:#FFFFFF; stroke-width:0; stroke-opacity:1; 
stroke-linecap:round; stroke-linejoin:round;">
<circle cx="15032.4" cy="20622" r="160" /> 
</g>
<g style="fill:#FFFFFF; fill-opacity:1.0; 
stroke:#FFFFFF; stroke-width:39.3701; stroke-opacity:1; 
stroke-linecap:round; stroke-linejoin:round;">
</g>
<g style="fill:#FFFFFF; fill-opacity:1.0; 
stroke:#FFFFFF; stroke-width:0; stroke-opacity:1; 
stroke-linecap:round; stroke-linejoin:round;">
<circle cx="10032.4" cy="16669.3" r="216.535" /> 
</g>
<g style="fill:#FFFFFF; fill-opacity:1.0; 
stroke:#FFFFFF; stroke-width:39.3701; stroke-opacity:1; 
stroke-linecap:round; stroke-linejoin:round;">
</g>
<g style="fill:#FFFFFF; fill-opacity:1.0; 
stroke:#FFFFFF; stroke-width:0; stroke-opacity:1; 
stroke-linecap:round; stroke-linejoin:round;">
<circle cx="9048.16" cy="16669.3" r="216.535" /> 
</g>
<g style="fill:#FFFFFF; fill-opacity:1.0; 
stroke:#FFFFFF; stroke-width:39.3701; stroke-opacity:1; 
stroke-linecap:round; stroke-linejoin:round;">
</g>
<g style="fill:#FFFFFF; fill-opacity:1.0; 
stroke:#FFFFFF; stroke-width:0; stroke-opacity:1; 
stroke-linecap:round; stroke-linejoin:round;">
<circle cx="11016.7" cy="16669.3" r="216.535" /> 
</g>
<g style="fill:#FFFFFF; fill-opacity:1.0; 
stroke:#FFFFFF; stroke-width:39.3701; stroke-opacity:1; 
stroke-linecap:round; stroke-linejoin:round;">
</g>
<g style="fill:#FFFFFF; fill-opacity:1.0; 
stroke:#FFFFFF; stroke-width:0; stroke-opacity:1; 
stroke-linecap:round; stroke-linejoin:round;">
<circle cx="9048.16" cy="22378" r="216.535" /> 
</g>
<g style="fill:#FFFFFF; fill-opacity:1.0; 
stroke:#FFFFFF; stroke-width:39.3701; stroke-opacity:1; 
stroke-linecap:round; stroke-linejoin:round;">
</g>
<g style="fill:#FFFFFF; fill-opacity:1.0; 
stroke:#FFFFFF; stroke-width:0; stroke-opacity:1; 
stroke-linecap:round; stroke-linejoin:round;">
<circle cx="11016.7" cy="22378" r="216.535" /> 
</g>
<g style="fill:#FFFFFF; fill-opacity:1.0; 
stroke:#FFFFFF; stroke-width:39.3701; stroke-opacity:1; 
stroke-linecap:round; stroke-linejoin:round;">
</g>
<g style="fill:#FFFFFF; fill-opacity:1.0; 
stroke:#FFFFFF; stroke-width:0; stroke-opacity:1; 
stroke-linecap:round; stroke-linejoin:round;">
<circle cx="7276.51" cy="19622" r="413.386" /> 
</g>
<g style="fill:#FFFFFF; fill-opacity:1.0; 
stroke:#FFFFFF; stroke-width:39.3701; stroke-opacity:1; 
stroke-linecap:round; stroke-linejoin:round;">
</g>
<g style="fill:#FFFFFF; fill-opacity:1.0; 
stroke:#FFFFFF; stroke-width:0; stroke-opacity:1; 
stroke-linecap:round; stroke-linejoin:round;">
<circle cx="12788.3" cy="19622" r="413.386" /> 
</g>
<g style="fill:#FFFFFF; fill-opacity:1.0; 
stroke:#FFFFFF; stroke-width:39.3701; stroke-opacity:1; 
stroke-linecap:round; stroke-linejoin:round;">
</g>
<g style="fill:#000000; fill-opacity:1.0; 
stroke:#000000; stroke-width:39.3701; stroke-opacity:1; 
stroke-linecap:round; stroke-linejoin:round;">
</g> 
</svg>
